<svg width="88" height="88" viewBox="0 0 88 88" fill="none" xmlns="http://www.w3.org/2000/svg">
<rect x="45.6826" y="47.0361" width="9.09896" height="36.9637" fill="#E0E0E0"/>
<rect width="8.75276" height="5.82305" transform="matrix(1 0 0 -1 45.8555 52.8594)" fill="url(#paint0_linear)"/>
<path d="M46.8802 48.3301L41.1054 61.2172C38.3041 67.472 27.8795 72.5439 17.8262 72.5439C10.5662 72.5439 5.48222 69.8984 4.27539 66.07L4.78597 67.6885C5.9928 71.5142 11.0768 74.1624 18.3368 74.1624C28.3901 74.1624 38.8146 69.0905 41.616 62.8357L47.3907 49.9486L46.8802 48.3301Z" fill="#E0E0E0"/>
<path d="M83.9645 21.6238V48.33H10.4409V21.6238C10.4409 11.8917 18.602 4 28.6662 4H65.7392C75.8034 4 83.9645 11.8917 83.9645 21.6238Z" fill="#EEEEEE"/>
<path d="M46.8804 48.3301L41.1056 61.2172C38.3043 67.472 27.8797 72.5439 17.8265 72.5439C7.77596 72.5439 1.89746 67.472 4.69882 61.2172L10.4736 48.3301H46.8804Z" fill="#E8E8E8"/>
<path d="M46.8885 21.6238V48.33H10.438V21.6238C10.438 11.8917 18.5991 4 28.6632 4C38.7274 4 46.8885 11.8917 46.8885 21.6238Z" fill="#E0E0E0"/>
<path d="M44.7069 21.6239V46.2179H12.625V21.6239C12.625 13.7268 18.7547 7.19217 26.6564 6.23376C27.3144 6.15455 27.9861 6.1123 28.666 6.1123C37.5096 6.1123 44.7069 13.0694 44.7069 21.6239Z" fill="#CDCDCD"/>
<path d="M40.6878 21.624V46.218H12.625V21.624C12.625 13.727 18.7547 7.1923 26.6564 6.23389C34.5581 7.1923 40.6878 13.727 40.6878 21.624Z" fill="#D5D5D5"/>
<defs>
<linearGradient id="paint0_linear" x1="4.37638" y1="0" x2="4.37638" y2="5.82305" gradientUnits="userSpaceOnUse">
<stop stop-color="white" stop-opacity="0"/>
<stop offset="1" stop-opacity="0.06"/>
</linearGradient>
</defs>
</svg>
